<mxfile host="app.diagrams.net" agent="Mozilla/5.0 (Macintosh; Intel Mac OS X 10.15; rv:129.0) Gecko/20100101 Firefox/129.0" version="24.7.12">
  <diagram name="Page-1" id="ZNFxOjxP5cYbFs4iC51F">
    <mxGraphModel dx="985" dy="917" grid="1" gridSize="10" guides="1" tooltips="1" connect="1" arrows="1" fold="1" page="1" pageScale="1" pageWidth="850" pageHeight="1100" math="0" shadow="0">
      <root>
        <mxCell id="0" />
        <mxCell id="1" parent="0" />
        <mxCell id="Dal6TMpbECER1GlNZ9lq-34" value="" style="rounded=0;whiteSpace=wrap;html=1;fillColor=none;" parent="1" vertex="1">
          <mxGeometry x="80" y="120" width="130" height="40" as="geometry" />
        </mxCell>
        <mxCell id="Dal6TMpbECER1GlNZ9lq-32" value="" style="rounded=0;whiteSpace=wrap;html=1;fillColor=none;" parent="1" vertex="1">
          <mxGeometry x="80" y="40" width="130" height="40" as="geometry" />
        </mxCell>
        <mxCell id="Dal6TMpbECER1GlNZ9lq-28" value="3" style="whiteSpace=wrap;html=1;aspect=fixed;dashed=1;fontSize=24;" parent="1" vertex="1">
          <mxGeometry x="85" y="45" width="30" height="30" as="geometry" />
        </mxCell>
        <mxCell id="Hfn-NWJC1_bhVsuM3egG-5" value="" style="whiteSpace=wrap;html=1;aspect=fixed;fontSize=24;strokeColor=none;fillColor=none;" parent="1" vertex="1">
          <mxGeometry x="360" y="20" width="40" height="40" as="geometry" />
        </mxCell>
        <mxCell id="Hfn-NWJC1_bhVsuM3egG-6" value="" style="whiteSpace=wrap;html=1;aspect=fixed;fontSize=24;strokeColor=none;fillColor=none;" parent="1" vertex="1">
          <mxGeometry x="400" y="20" width="40" height="40" as="geometry" />
        </mxCell>
        <mxCell id="Hfn-NWJC1_bhVsuM3egG-7" value="" style="whiteSpace=wrap;html=1;aspect=fixed;fontSize=24;strokeColor=none;fillColor=none;" parent="1" vertex="1">
          <mxGeometry x="440" y="20" width="40" height="40" as="geometry" />
        </mxCell>
        <mxCell id="G9SRQUJ1ZkAxIyxl74F2-12" value="" style="whiteSpace=wrap;html=1;aspect=fixed;fontSize=24;strokeColor=none;fillColor=none;" parent="1" vertex="1">
          <mxGeometry x="320" y="20" width="40" height="40" as="geometry" />
        </mxCell>
        <mxCell id="Dal6TMpbECER1GlNZ9lq-2" value="&lt;font face=&quot;Courier New&quot;&gt;a&lt;/font&gt;" style="whiteSpace=wrap;html=1;fontSize=24;align=left;fillColor=none;strokeColor=none;" parent="1" vertex="1">
          <mxGeometry x="54" y="40" width="26" height="40" as="geometry" />
        </mxCell>
        <mxCell id="Dal6TMpbECER1GlNZ9lq-29" value="1" style="whiteSpace=wrap;html=1;aspect=fixed;dashed=1;fontSize=24;" parent="1" vertex="1">
          <mxGeometry x="115" y="45" width="30" height="30" as="geometry" />
        </mxCell>
        <mxCell id="Dal6TMpbECER1GlNZ9lq-30" value="4" style="whiteSpace=wrap;html=1;aspect=fixed;dashed=1;fontSize=24;" parent="1" vertex="1">
          <mxGeometry x="145" y="45" width="30" height="30" as="geometry" />
        </mxCell>
        <mxCell id="Dal6TMpbECER1GlNZ9lq-31" value="7" style="whiteSpace=wrap;html=1;aspect=fixed;dashed=1;fontSize=24;" parent="1" vertex="1">
          <mxGeometry x="175" y="45" width="30" height="30" as="geometry" />
        </mxCell>
        <mxCell id="Dal6TMpbECER1GlNZ9lq-33" value="3" style="whiteSpace=wrap;html=1;aspect=fixed;dashed=1;fontSize=24;" parent="1" vertex="1">
          <mxGeometry x="85" y="125" width="30" height="30" as="geometry" />
        </mxCell>
        <mxCell id="Dal6TMpbECER1GlNZ9lq-35" value="&lt;font face=&quot;Courier New&quot;&gt;a&lt;/font&gt;" style="whiteSpace=wrap;html=1;fontSize=24;align=left;fillColor=none;strokeColor=none;" parent="1" vertex="1">
          <mxGeometry x="54" y="120" width="26" height="40" as="geometry" />
        </mxCell>
        <mxCell id="Dal6TMpbECER1GlNZ9lq-36" value="1" style="whiteSpace=wrap;html=1;aspect=fixed;dashed=1;fontSize=24;" parent="1" vertex="1">
          <mxGeometry x="115" y="125" width="30" height="30" as="geometry" />
        </mxCell>
        <mxCell id="Dal6TMpbECER1GlNZ9lq-37" value="8" style="whiteSpace=wrap;html=1;aspect=fixed;dashed=1;fontSize=24;" parent="1" vertex="1">
          <mxGeometry x="145" y="125" width="30" height="30" as="geometry" />
        </mxCell>
        <mxCell id="Dal6TMpbECER1GlNZ9lq-38" value="7" style="whiteSpace=wrap;html=1;aspect=fixed;dashed=1;fontSize=24;" parent="1" vertex="1">
          <mxGeometry x="175" y="125" width="30" height="30" as="geometry" />
        </mxCell>
      </root>
    </mxGraphModel>
  </diagram>
</mxfile>
